<svg xmlns="http://www.w3.org/2000/svg" viewBox="0 0 300 300">
  <!-- Pies descalzos -->
  <path d="M80 240 Q75 270 110 270 Q130 270 125 240" fill="#f5cba7"/>
  <path d="M180 240 Q175 270 210 270 Q230 270 225 240" fill="#f5cba7"/>
  <!-- Huellas digitales -->
  <ellipse cx="100" cy="260" rx="8" ry="5" fill="#e8b080"/>
  <ellipse cx="115" cy="258" rx="6" ry="4" fill="#e8b080"/>
  <ellipse cx="125" cy="256" rx="5" ry="3" fill="#e8b080"/>
  <ellipse cx="200" cy="260" rx="8" ry="5" fill="#e8b080"/>
  <ellipse cx="215" cy="258" rx="6" ry="4" fill="#e8b080"/>
  <ellipse cx="225" cy="256" rx="5" ry="3" fill="#e8b080"/>
  <!-- Uñas -->
  <rect x="110" y="248" width="6" height="4" fill="#d4a574" rx="1"/>
  <rect x="120" y="246" width="5" height="4" fill="#d4a574" rx="1"/>
  <rect x="210" y="248" width="6" height="4" fill="#d4a574" rx="1"/>
  <rect x="220" y="246" width="5" height="4" fill="#d4a574" rx="1"/>
</svg>