<svg xmlns="http://www.w3.org/2000/svg" viewBox="0 0 100 150" width="100" height="150">
  <!-- Cuerpo de zombie -->
  <path d="M25 15 Q15 40 20 80 L25 130 L45 130 L45 90 L55 90 L55 130 L75 130 L80 80 Q85 40 75 15 Z" fill="#5a7a5a"/>
  <!-- Ropa rasgada -->
  <path d="M25 40 L75 40" stroke="#3d3d3d" stroke-width="3" stroke-dasharray="5,3"/>
  <path d="M25 60 L75 60" stroke="#3d3d3d" stroke-width="3" stroke-dasharray="5,3"/>
  <path d="M25 80 L75 80" stroke="#3d3d3d" stroke-width="3" stroke-dasharray="5,3"/>
  <!-- Agujeros -->
  <circle cx="35" cy="50" r="5" fill="#3d3d3d"/>
  <circle cx="65" cy="70" r="4" fill="#3d3d3d"/>
  <!-- Manos zombie -->
  <path d="M20 35 L5 45 L8 50 L22 42" fill="#5a7a5a"/>
  <path d="M80 35 L95 45 L92 50 L78 42" fill="#5a7a5a"/>
  <!-- Dedos podridos -->
  <circle cx="5" cy="48" r="3" fill="#4a6a4a"/>
  <circle cx="95" cy="48" r="3" fill="#4a6a4a"/>
</svg>