<svg xmlns="http://www.w3.org/2000/svg" viewBox="0 0 100 150" width="100" height="150">
  <!-- Camiseta GitHub -->
  <rect x="25" y="15" width="50" height="65" rx="5" fill="#24292e"/>
  <!-- Logo GitHub -->
  <path d="M50 30 Q35 30 35 45 Q35 55 45 60 M50 30 Q65 30 65 45 Q65 55 55 60 M50 30 L50 70" stroke="#fff" stroke-width="2" fill="none"/>
  <circle cx="50" cy="40" r="3" fill="#fff"/>
  <circle cx="45" cy="50" r="2" fill="#fff"/>
  <circle cx="55" cy="50" r="2" fill="#fff"/>
  <circle cx="50" cy="60" r="2" fill="#fff"/>
  <!-- Cuello -->
  <path d="M40 15 Q50 20 60 15" fill="#1a1a1a"/>
  <!-- Mangas -->
  <rect x="10" y="18" width="18" height="25" rx="3" fill="#24292e"/>
  <rect x="72" y="18" width="18" height="25" rx="3" fill="#24292e"/>
  <!-- Piernas -->
  <rect x="30" y="80" width="15" height="50" fill="#24292e"/>
  <rect x="55" y="80" width="15" height="50" fill="#24292e"/>
</svg>