<svg xmlns="http://www.w3.org/2000/svg" viewBox="0 0 100 150" width="100" height="150">
  <!-- Camiseta LinkedIn -->
  <rect x="25" y="15" width="50" height="65" rx="5" fill="#0077b5"/>
  <!-- Logo LinkedIn simplificado -->
  <path d="M38 25 L38 40 L43 35 L43 25 M48 28 L48 42 L43 37 L43 35 L48 28 M43 45 L43 55 Q43 60 48 60 Q53 60 53 55 L53 45 Q53 40 48 40 Q43 40 43 45" fill="#fff"/>
  <!-- Cuello -->
  <path d="M40 15 Q50 20 60 15" fill="#005a8c"/>
  <!-- Mangas -->
  <rect x="10" y="18" width="18" height="25" rx="3" fill="#0077b5"/>
  <rect x="72" y="18" width="18" height="25" rx="3" fill="#0077b5"/>
  <!-- Piernas -->
  <rect x="30" y="80" width="15" height="50" fill="#0077b5"/>
  <rect x="55" y="80" width="15" height="50" fill="#0077b5"/>
</svg>