<svg xmlns="http://www.w3.org/2000/svg" viewBox="0 0 100 150" width="100" height="150">
  <!-- Camiseta bandera España -->
  <rect x="25" y="15" width="50" height="65" rx="5" fill="#aa151b"/>
  <!-- Roja arriba -->
  <rect x="25" y="15" width="50" height="15" fill="#aa151b"/>
  <!-- Amarilla -->
  <rect x="25" y="30" width="50" height="25" fill="#f1bf00"/>
  <!-- Roja abajo -->
  <rect x="25" y="55" width="50" height="25" fill="#aa151b"/>
  <!-- Escudo -->
  <ellipse cx="50" cy="42" rx="10" ry="10" fill="#aa151b"/>
  <ellipse cx="50" cy="40" rx="8" ry="6" fill="#f1bf00"/>
  <path d="M45 38 L50 35 L55 38 L55 45 L50 48 L45 45 Z" fill="#aa151b"/>
  <!-- Cuello -->
  <path d="M40 15 Q50 20 60 15" fill="#8b0000"/>
  <!-- Mangas -->
  <rect x="10" y="18" width="18" height="25" rx="3" fill="#aa151b"/>
  <rect x="72" y="18" width="18" height="25" rx="3" fill="#aa151b"/>
  <!-- Piernas -->
  <rect x="30" y="80" width="15" height="50" fill="#aa151b"/>
  <rect x="55" y="80" width="15" height="50" fill="#aa151b"/>
</svg>