<svg xmlns="http://www.w3.org/2000/svg" viewBox="0 0 100 150" width="100" height="150">
  <!-- Armadura tech -->
  <path d="M25 15 L20 40 L25 80 L30 130 L45 130 L45 90 L55 90 L55 130 L70 130 L75 80 L80 40 L75 15 Z" fill="#505050"/>
  <!-- Placas -->
  <path d="M30 20 L70 20 L70 35 L30 35 Z" fill="#707070"/>
  <path d="M28 40 L72 40 L70 60 L30 60 Z" fill="#606060"/>
  <path d="M30 65 L70 65 L68 85 L32 85 Z" fill="#707070"/>
  <!-- Luces -->
  <circle cx="40" cy="27" r="3" fill="#00ffff"/>
  <circle cx="60" cy="27" r="3" fill="#00ffff"/>
  <circle cx="50" cy="50" r="4" fill="#ff00ff"/>
  <circle cx="35" cy="75" r="2" fill="#00ffff"/>
  <circle cx="65" cy="75" r="2" fill="#00ffff"/>
  <!-- Hombreras -->
  <ellipse cx="20" cy="35" rx="10" ry="8" fill="#606060"/>
  <ellipse cx="80" cy="35" rx="10" ry="8" fill="#606060"/>
  <!-- Cinturón -->
  <rect x="28" y="88" width="44" height="8" fill="#404040"/>
  <rect x="45" y="88" width="10" height="8" fill="#00ffff"/>
</svg>