<svg xmlns="http://www.w3.org/2000/svg" viewBox="0 0 100 150" width="100" height="150">
  <!-- Formal corporate -->
  <rect x="25" y="15" width="50" height="65" rx="3" fill="#2c3e50"/>
  <!-- Corbata -->
  <path d="M50 15 L45 25 L50 80 L55 25 Z" fill="#c0392b"/>
  <path d="M50 25 L47 30 L50 35 L53 30 Z" fill="#e74c3c"/>
  <!-- Cuello camisa -->
  <path d="M35 15 L40 25 L50 20 L60 25 L65 15" fill="#fff"/>
  <!-- Botones -->
  <circle cx="40" cy="45" r="2" fill="#34495e"/>
  <circle cx="40" cy="55" r="2" fill="#34495e"/>
  <circle cx="60" cy="45" r="2" fill="#34495e"/>
  <circle cx="60" cy="55" r="2" fill="#34495e"/>
  <!-- Bolsillo -->
  <rect x="58" y="35" width="12" height="15" rx="1" fill="#34495e"/>
  <!-- Mangas -->
  <rect x="10" y="18" width="18" height="25" rx="2" fill="#2c3e50"/>
  <rect x="72" y="18" width="18" height="25" rx="2" fill="#2c3e50"/>
  <!-- Puños -->
  <rect x="10" y="40" width="18" height="5" fill="#fff"/>
  <rect x="72" y="40" width="18" height="5" fill="#fff"/>
  <!-- Piernas -->
  <rect x="30" y="80" width="15" height="50" fill="#34495e"/>
  <rect x="55" y="80" width="15" height="50" fill="#34495e"/>
</svg>