<svg xmlns="http://www.w3.org/2000/svg" viewBox="0 0 100 150" width="100" height="150">
  <!-- Cuerpo de villano/maldoso -->
  <path d="M25 15 Q20 50 15 80 L15 130 L30 130 L30 90 L40 130 L60 130 L60 90 L70 130 L85 130 L85 80 Q80 50 75 15 Z" fill="#2c2c2c"/>
  <!-- Camisa con cravata -->
  <path d="M35 15 L50 50 L65 15" fill="#8b0000"/>
  <rect x="47" y="20" width="6" height="25" fill="#ffd700"/>
  <!-- Botones -->
  <circle cx="30" cy="40" r="3" fill="#c0c0c0"/>
  <circle cx="30" cy="55" r="3" fill="#c0c0c0"/>
  <circle cx="70" cy="40" r="3" fill="#c0c0c0"/>
  <circle cx="70" cy="55" r="3" fill="#c0c0c0"/>
  <!-- Manos garras -->
  <path d="M15 85 L5 95 L10 100 L18 90" fill="#2c2c2c"/>
  <path d="M85 85 L95 95 L90 100 L82 90" fill="#2c2c2c"/>
</svg>